<?xml version="1.0" encoding="UTF-8" standalone="no"?>
<!-- Created with Inkscape (http://www.inkscape.org/) -->

<svg
   version="1.1"
   id="svg18"
   width="410.55841"
   height="63.217735"
   viewBox="0 0 410.55841 63.217735"
   xmlns="http://www.w3.org/2000/svg"
   xmlns:svg="http://www.w3.org/2000/svg">
  <defs
     id="defs22">
    <clipPath
       clipPathUnits="userSpaceOnUse"
       id="clipPath36">
      <path
         d="M 0,117 H 377 V 0 H 0 Z"
         id="path34" />
    </clipPath>
    <clipPath
       clipPathUnits="userSpaceOnUse"
       id="clipPath42">
      <path
         d="M 0,0 H 377 V 117 H 0 Z"
         id="path40" />
    </clipPath>
  </defs>
  <g
     id="g26"
     transform="matrix(1.3333333,0,0,-1.3333333,-46.822799,108.4928)">
    <g
       id="g30">
      <g
         id="g32"
         clip-path="url(#clipPath36)">
        <g
           id="g38"
           clip-path="url(#clipPath42)">
          <path
             d="m 53.3381,50.2769 c 0.475,1.025 1.024,1.925 1.725,2.475 0.449,0.349 1.199,0.599 1.999,0.599 0.9,0 1.75,-0.274 2.424,-0.949 0.65,-0.65 0.925,-1.425 0.925,-2.649 0,-1.4 -0.724,-3.924 -3.05,-6.149 -2.224,-2.175 -4.873,-3.199 -9.122,-3.199 -3.974,0 -7.073,1.324 -9.472,3.749 -3.525,3.524 -3.65,7.548 -3.65,14.347 0,6.797 0.125,10.822 3.65,14.346 2.399,2.424 5.498,3.749 9.472,3.749 4.249,0 6.898,-1.025 9.122,-3.199 2.326,-2.224 3.05,-4.749 3.05,-6.148 0,-1.226 -0.275,-2 -0.925,-2.65 -0.674,-0.675 -1.524,-0.95 -2.424,-0.95 -0.8,0 -1.55,0.25 -1.999,0.6 -0.701,0.549 -1.25,1.45 -1.725,2.474 -1.125,2.499 -2.8,3.674 -5.249,3.674 -1.824,0 -3.199,-0.749 -4.224,-1.899 -1.474,-1.7 -1.75,-3.649 -1.75,-9.997 0,-6.349 0.276,-8.298 1.75,-9.998 1.025,-1.15 2.4,-1.9 4.224,-1.9 2.449,0 4.124,1.175 5.249,3.674"
             style="fill:#00030b;fill-opacity:1;fill-rule:nonzero;stroke:none"
             id="path44" />
          <path
             d="m 73.0149,68.4976 c -1.324,-1.499 -1.725,-3.199 -1.725,-9.997 0,-6.799 0.401,-8.474 1.725,-9.973 1,-1.125 2.574,-1.925 4.474,-1.925 1.899,0 3.474,0.8 4.474,1.925 1.324,1.499 1.725,3.174 1.725,9.973 0,6.798 -0.401,8.498 -1.725,9.997 -1,1.15 -2.575,1.899 -4.474,1.899 -1.9,0 -3.474,-0.749 -4.474,-1.899 m -5.073,-24.344 c -3.525,3.525 -3.65,7.548 -3.65,14.347 0,6.798 0.125,10.822 3.65,14.347 2.399,2.423 5.423,3.749 9.547,3.749 4.124,0 7.148,-1.326 9.547,-3.749 3.525,-3.525 3.65,-7.549 3.65,-14.347 0,-6.799 -0.125,-10.822 -3.65,-14.347 -2.399,-2.425 -5.423,-3.749 -9.547,-3.749 -4.124,0 -7.148,1.324 -9.547,3.749"
             style="fill:#00030b;fill-opacity:1;fill-rule:nonzero;stroke:none"
             id="path46" />
          <path
             d="m 103.2151,46.9028 h 5.299 c 2.349,0 4.049,0.75 5.199,2.2 1.299,1.624 1.449,3.799 1.449,9.398 0,5.598 -0.15,7.772 -1.449,9.397 -1.15,1.449 -2.85,2.199 -5.199,2.199 h -5.299 z m -6.023,-5.224 c -0.975,0.975 -0.975,2.25 -0.975,3.275 v 27.094 c 0,1.024 0,2.298 0.975,3.273 0.974,0.976 2.25,0.976 3.274,0.976 h 8.647 c 4.85,0 8.074,-1.55 10.748,-5.2 2.25,-3.048 2.299,-6.698 2.299,-12.596 0,-5.899 -0.049,-9.548 -2.299,-12.597 -2.674,-3.649 -5.898,-5.199 -10.748,-5.199 h -8.647 c -1.024,0 -2.3,0 -3.274,0.974"
             style="fill:#00030b;fill-opacity:1;fill-rule:nonzero;stroke:none"
             id="path48" />
          <path
             d="m 128.7161,41.6792 c -0.975,0.975 -0.975,2.25 -0.975,3.274 v 27.094 c 0,1.025 0,2.299 0.975,3.274 0.975,0.975 2.25,0.975 3.274,0.975 h 15.247 c 1.474,0 2.049,-0.051 2.724,-0.4 0.875,-0.45 1.475,-1.475 1.475,-2.699 0,-1.225 -0.6,-2.25 -1.475,-2.7 -0.675,-0.35 -1.25,-0.4 -2.724,-0.4 h -12.498 v -8.348 h 10.098 c 1.475,0 2.05,-0.049 2.725,-0.4 0.875,-0.449 1.474,-1.475 1.474,-2.699 0,-1.225 -0.599,-2.249 -1.474,-2.7 -0.675,-0.349 -1.25,-0.399 -2.725,-0.399 h -10.098 v -8.648 h 12.498 c 1.474,0 2.049,-0.05 2.724,-0.4 0.875,-0.45 1.475,-1.474 1.475,-2.699 0,-1.225 -0.6,-2.25 -1.475,-2.699 -0.675,-0.351 -1.25,-0.401 -2.724,-0.401 h -15.247 c -1.024,0 -2.299,0 -3.274,0.975"
             style="fill:#00030b;fill-opacity:1;fill-rule:nonzero;stroke:none"
             id="path50" />
          <path
             d="m 170.012,60.7251 c 3.049,0 4.999,1.899 4.999,4.674 0,2.799 -1.95,4.698 -4.999,4.698 h -6.599 v -9.372 z m -6.599,-15.521 c 0,-1.625 -0.049,-2.2 -0.474,-3.05 -0.526,-0.975 -1.65,-1.65 -3.025,-1.65 -1.375,0 -2.499,0.675 -3.024,1.65 -0.425,0.85 -0.475,1.425 -0.475,3.05 v 26.843 c 0,1.025 0,2.299 0.975,3.274 0.975,0.975 2.25,0.975 3.274,0.975 h 9.723 c 7.273,0 11.572,-4.924 11.572,-10.873 0,-4.249 -2.349,-7.748 -6.448,-9.397 l 5.323,-9.273 c 0.8,-1.4 1.075,-1.974 1.125,-2.799 0.05,-1.1 -0.575,-2.25 -1.724,-2.9 -0.6,-0.35 -1.225,-0.55 -1.85,-0.55 -1.875,0 -2.6,1.276 -3.499,2.85 l -6.599,11.522 h -4.874 z"
             style="fill:#00030b;fill-opacity:1;fill-rule:nonzero;stroke:none"
             id="path52" />
          <path
             d="m 193.9885,47.9526 c 0,-1.899 0.275,-2.999 0.825,-4.023 0.45,-0.8 1,-1.5 1.525,-2.026 1.075,-1.049 1.399,-1.549 1.625,-2.348 0.25,-0.901 0.075,-2.076 -0.8,-2.975 -0.651,-0.649 -1.55,-0.95 -2.35,-0.95 -1,0 -1.75,0.301 -3.174,1.75 -1.474,1.5 -2.399,2.599 -3.149,4.124 -0.8,1.675 -1,3.499 -1,6.123 v 21.745 c 0,2.624 0.2,4.449 1,6.123 0.75,1.525 1.675,2.625 3.149,4.124 1.424,1.45 2.174,1.75 3.174,1.75 0.8,0 1.699,-0.3 2.35,-0.95 0.875,-0.9 1.05,-2.074 0.8,-2.974 -0.226,-0.8 -0.55,-1.3 -1.625,-2.349 -0.525,-0.525 -1.075,-1.225 -1.525,-2.025 -0.55,-1.024 -0.825,-2.125 -0.825,-4.024 z"
             style="fill:#00030b;fill-opacity:1;fill-rule:nonzero;stroke:none"
             id="path54" />
          <path
             d="m 209.8879,46.9028 h 5.299 c 2.349,0 4.049,0.75 5.199,2.2 1.299,1.624 1.449,3.799 1.449,9.398 0,5.598 -0.15,7.772 -1.449,9.397 -1.15,1.449 -2.85,2.199 -5.199,2.199 h -5.299 z m -6.023,-5.224 c -0.975,0.975 -0.975,2.25 -0.975,3.275 v 27.094 c 0,1.024 0,2.298 0.975,3.273 0.974,0.976 2.25,0.976 3.274,0.976 h 8.647 c 4.85,0 8.074,-1.55 10.748,-5.2 2.25,-3.048 2.299,-6.698 2.299,-12.596 0,-5.899 -0.049,-9.548 -2.299,-12.597 -2.674,-3.649 -5.898,-5.199 -10.748,-5.199 h -8.647 c -1.024,0 -2.3,0 -3.274,0.974"
             style="fill:#00030b;fill-opacity:1;fill-rule:nonzero;stroke:none"
             id="path56" />
          <path
             d="m 241.9124,68.4976 c -1.324,-1.499 -1.725,-3.199 -1.725,-9.997 0,-6.799 0.401,-8.474 1.725,-9.973 1,-1.125 2.574,-1.925 4.474,-1.925 1.9,0 3.474,0.8 4.474,1.925 1.324,1.499 1.725,3.174 1.725,9.973 0,6.798 -0.401,8.498 -1.725,9.997 -1,1.15 -2.574,1.899 -4.474,1.899 -1.9,0 -3.474,-0.749 -4.474,-1.899 m -5.073,-24.344 c -3.525,3.525 -3.65,7.548 -3.65,14.347 0,6.798 0.125,10.822 3.65,14.347 2.399,2.423 5.423,3.749 9.547,3.749 4.124,0 7.148,-1.326 9.547,-3.749 3.525,-3.525 3.65,-7.549 3.65,-14.347 0,-6.799 -0.125,-10.822 -3.65,-14.347 -2.399,-2.425 -5.423,-3.749 -9.547,-3.749 -4.124,0 -7.148,1.324 -9.547,3.749"
             style="fill:#00030b;fill-opacity:1;fill-rule:nonzero;stroke:none"
             id="path58" />
          <path
             d="m 274.5618,52.7017 v 19.096 c 0,1.624 0.05,2.199 0.475,3.049 0.525,0.974 1.649,1.649 3.024,1.649 1.375,0 2.499,-0.675 3.024,-1.649 0.425,-0.85 0.475,-1.425 0.475,-3.049 v -19.396 c 0,-7.848 -5.948,-11.997 -12.597,-11.997 -2.699,0 -4.973,0.575 -6.898,1.975 -1.125,0.824 -1.574,1.675 -1.574,2.774 0,0.85 0.399,1.725 0.974,2.249 0.576,0.5 1.225,0.725 1.9,0.725 0.7,0 1.375,-0.25 2.374,-0.749 1.175,-0.575 1.974,-0.776 3.224,-0.776 3.4,0 5.599,2 5.599,6.099"
             style="fill:#00030b;fill-opacity:1;fill-rule:nonzero;stroke:none"
             id="path60" />
          <path
             d="m 295.2375,68.4976 c -1.324,-1.499 -1.725,-3.199 -1.725,-9.997 0,-6.799 0.401,-8.474 1.725,-9.973 1,-1.125 2.574,-1.925 4.474,-1.925 1.899,0 3.474,0.8 4.474,1.925 1.324,1.499 1.725,3.174 1.725,9.973 0,6.798 -0.401,8.498 -1.725,9.997 -1,1.15 -2.575,1.899 -4.474,1.899 -1.9,0 -3.474,-0.749 -4.474,-1.899 m -5.073,-24.344 c -3.525,3.525 -3.65,7.548 -3.65,14.347 0,6.798 0.125,10.822 3.65,14.347 2.399,2.423 5.423,3.749 9.547,3.749 4.124,0 7.148,-1.326 9.547,-3.749 3.525,-3.525 3.65,-7.549 3.65,-14.347 0,-6.799 -0.125,-10.822 -3.65,-14.347 -2.399,-2.425 -5.423,-3.749 -9.547,-3.749 -4.124,0 -7.148,1.324 -9.547,3.749"
             style="fill:#00030b;fill-opacity:1;fill-rule:nonzero;stroke:none"
             id="path62" />
          <path
             d="m 320.5881,69.0474 c 0,1.899 -0.274,3 -0.825,4.024 -0.449,0.8 -0.999,1.5 -1.525,2.025 -1.074,1.05 -1.399,1.55 -1.624,2.349 -0.25,0.9 -0.075,2.075 0.8,2.974 0.65,0.65 1.549,0.95 2.349,0.95 1,0 1.75,-0.3 3.175,-1.75 1.474,-1.499 2.399,-2.598 3.149,-4.124 0.8,-1.674 0.999,-3.499 0.999,-6.123 v -21.745 c 0,-2.624 -0.199,-4.448 -0.999,-6.123 -0.75,-1.524 -1.675,-2.624 -3.149,-4.124 -1.425,-1.449 -2.175,-1.75 -3.175,-1.75 -0.8,0 -1.699,0.301 -2.349,0.95 -0.875,0.9 -1.05,2.074 -0.8,2.975 0.225,0.8 0.55,1.3 1.624,2.348 0.526,0.526 1.076,1.226 1.525,2.026 0.551,1.024 0.825,2.124 0.825,4.023 z"
             style="fill:#00030b;fill-opacity:1;fill-rule:nonzero;stroke:none"
             id="path64" />
          <path
             d="m 338.6379,53.8013 c -2.399,0 -4.349,1.949 -4.349,4.349 0,2.399 1.95,4.349 4.349,4.349 2.399,0 4.398,-1.95 4.398,-4.349 0,-2.4 -1.999,-4.349 -4.398,-4.349 m 2.725,-9.923 -2.175,-6.573 c -0.475,-1.425 -0.725,-1.949 -1.324,-2.549 -0.526,-0.525 -1.25,-0.8 -2.05,-0.8 -1.2,0 -3.074,0.775 -3.324,2.574 -0.125,0.8 0,1.425 0.474,2.85 l 2.175,6.573 c 0.475,1.425 0.725,1.95 1.324,2.549 0.526,0.526 1.25,0.8 2.05,0.8 1.199,0 3.074,-0.774 3.324,-2.574 0.125,-0.8 0,-1.425 -0.474,-2.85"
             style="fill:#00030b;fill-opacity:1;fill-rule:nonzero;stroke:none"
             id="path66" />
        </g>
      </g>
    </g>
  </g>
</svg>
